<?xml version="1.0" standalone="no"?>
<!DOCTYPE svg PUBLIC "-//W3C//DTD SVG 1.1//EN" "http://www.w3.org/Graphics/SVG/1.1/DTD/svg11.dtd">
<svg xmlns="http://www.w3.org/2000/svg" width="85" height="100" viewBox="0 0 85 100" fill="none">
<path d="M53.8158 76.0442L41.9484 87.7912L30.5829 76.0442H18.5146L41.7074 100L65.9042 76.0442H53.8158Z" fill="#237D3E"/>
<path d="M30.603 23.9558L42.4504 12.2289L53.8158 23.9558H65.9042L42.7114 0L18.5146 23.9558H30.603Z" fill="#6F2265"/>
<path d="M55.682 57.0481C55.682 58.9758 55.3005 60.6023 54.5374 61.9075C53.7744 63.2128 52.7503 64.277 51.4852 65.0802C50.2202 65.8835 48.7744 66.4457 47.168 66.8071C45.5615 67.1686 43.8949 67.3292 42.2081 67.3292H28.1318V31.9879H42.2081C43.5736 31.9879 44.9792 32.1284 46.4049 32.4096C47.8306 32.6907 49.1358 33.1726 50.3005 33.8554C51.4652 34.5381 52.4089 35.4618 53.1519 36.6264C53.8748 37.7911 54.2563 39.277 54.2563 41.0642C54.2563 43.0321 53.7142 44.6586 52.6499 45.9236C51.5856 47.2088 50.18 48.1325 48.4531 48.6947V48.7951C49.4571 48.9557 50.4009 49.277 51.2644 49.7188C52.1479 50.1606 52.9109 50.7429 53.5535 51.4457C54.1961 52.1485 54.7182 52.9517 55.0997 53.8955C55.4812 54.8393 55.682 55.8835 55.682 57.0481ZM46.0033 42.2288C46.0033 41.024 45.5415 40.1606 44.6379 39.5983C43.7142 39.0562 42.3688 38.775 40.5615 38.775H36.3648V46.0642H40.9632C42.5696 46.0642 43.7945 45.7429 44.678 45.0802C45.5615 44.4578 46.0033 43.4939 46.0033 42.2288ZM47.1479 56.2449C47.1479 54.779 46.6057 53.775 45.5013 53.1927C44.3969 52.6304 42.931 52.3493 41.1037 52.3493H36.3648V60.4417H41.164C41.8266 60.4417 42.5294 60.3814 43.2322 60.261C43.935 60.1405 44.5977 59.9397 45.18 59.6385C45.7623 59.3373 46.2443 58.9156 46.6057 58.3734C46.9672 57.8312 47.1479 57.1084 47.1479 56.2449Z" fill="white"/>
<path d="M74.4379 39.277V67.3292H65.9037V39.277H55.9238V31.9879H84.4379V39.277H74.4379Z" fill="white"/>
<path d="M22.7711 51.9276C22.1084 50.8031 21.2651 49.8594 20.261 49.0963C19.257 48.3333 18.1325 47.7308 16.8875 47.269C15.6626 46.8072 14.4578 46.3855 13.3333 46.0039C12.5502 45.7429 11.8273 45.5019 11.2048 45.261C10.5622 45.02 10.0201 44.759 9.55823 44.4778C9.09638 44.1967 8.75502 43.8554 8.51405 43.4738C8.27309 43.0923 8.15261 42.6104 8.15261 42.0481C8.15261 41.3855 8.29317 40.8433 8.59437 40.4015C8.89558 39.9798 9.25703 39.6184 9.71887 39.3574C10.1606 39.0963 10.6626 38.9156 11.2249 38.8152C11.7871 38.7148 12.3293 38.6746 12.8715 38.6746C12.9518 38.6746 19.7992 38.6947 20.8634 38.6947V31.9879C19.8394 31.9879 13.0321 31.9879 13.012 31.9879C11.4257 31.9879 9.85944 32.1887 8.31325 32.5903C6.76707 32.9919 5.36144 33.6144 4.13655 34.4578C2.91165 35.3212 1.90763 36.4056 1.14458 37.7309C0.381528 39.0562 0 40.6626 0 42.53C0 44.0562 0.240966 45.3413 0.742974 46.4055C1.2249 47.4698 1.88755 48.3734 2.69076 49.1164C3.49398 49.8594 4.41767 50.4618 5.44177 50.9437C6.46586 51.4256 7.53012 51.8272 8.59437 52.1887C9.69879 52.53 10.6827 52.8513 11.5663 53.1525C12.4297 53.4537 13.1727 53.7951 13.755 54.1565C14.3373 54.518 14.7992 54.9196 15.1004 55.3614C15.4217 55.8031 15.5823 56.3453 15.5823 56.9678C15.5823 57.6304 15.4618 58.1927 15.2008 58.6746C14.9398 59.1565 14.5984 59.5381 14.1767 59.8192C13.755 60.1003 13.253 60.3011 12.6707 60.4417C12.1084 60.5622 11.5462 60.6224 10.9639 60.6224H0.0803231V67.3292H10.9639C12.5904 67.3292 14.1767 67.1083 15.7028 66.6666C17.249 66.2248 18.6345 65.5421 19.8393 64.6184C21.0442 63.6947 22.008 62.53 22.7108 61.1244C23.4337 59.7188 23.7751 58.0521 23.7751 56.1043C23.7751 54.4377 23.4538 53.0521 22.7711 51.9276Z" fill="white"/>
</svg>