<?xml version="1.0" standalone="no"?>
<!DOCTYPE svg PUBLIC "-//W3C//DTD SVG 1.1//EN" "http://www.w3.org/Graphics/SVG/1.1/DTD/svg11.dtd">
<svg xmlns="http://www.w3.org/2000/svg" width="342" height="114" viewBox="0 0 342 114" fill="none">
<mask id="mask0_1_4404" style="mask-type:alpha" maskUnits="userSpaceOnUse" x="0" y="0" width="342" height="114">
<rect x="0.5" y="0.5" width="341" height="113" fill="white" stroke="#707070"/>
</mask>
<g mask="url(#mask0_1_4404)">
<path d="M94.1858 102.549H9.36234V9.85182H94.1858V102.549ZM7.76562 104.148H95.783V8.25H7.76562V104.148Z" fill="white"/>
<rect x="9.29688" y="9.79883" width="84.948" height="92.7993" fill="#5D0F2F"/>
<path d="M52.7831 36.6391V38.6372L52.1978 38.6167V35.7293C52.1978 35.7293 65.1948 36.0081 71.0286 45.3484C71.0286 45.3484 64.9683 36.8913 52.7831 36.6391ZM78.2663 49.2968C78.2663 49.2968 72.0773 33.582 51.6104 33.582C37.1278 33.582 26.3379 46.6063 26.3379 46.6063L31.2992 50.0544C31.2992 50.0544 40.0193 39.4998 52.4115 39.4998C64.8017 39.4998 72.983 48.7632 75.8971 55.0055H83.9795V49.2968H78.2663Z" fill="white"/>
<path d="M51.4409 76.6816C51.4409 76.6816 38.4397 76.4058 32.606 67.0552C32.606 67.0552 38.6611 75.519 50.8478 75.765V73.7716L51.4409 73.7849V76.6816ZM72.3353 62.3492C72.3353 62.3492 63.6081 72.9054 51.2215 72.9054C38.8338 72.9054 30.6381 63.646 27.7384 57.4043H19.6504V63.1027H25.3626C25.3626 63.1027 31.5516 78.8175 52.0216 78.8175C66.4955 78.8175 77.2874 65.7999 77.2874 65.7999L72.3353 62.3492Z" fill="white"/>
<path d="M23.8774 28.4341H21.9706C21.5431 28.4341 21.1992 28.7765 21.1992 29.2107C21.1992 29.63 21.5431 29.9785 21.9706 29.9785H23.8774C24.3003 29.9785 24.6473 29.63 24.6473 29.2107C24.6473 28.7765 24.3003 28.4341 23.8774 28.4341ZM28.0119 28.4341H26.1113C25.6781 28.4341 25.3291 28.7765 25.3291 29.2107C25.3291 29.63 25.6781 29.9785 26.1113 29.9785H28.0119C28.4405 29.9785 28.786 29.63 28.786 29.2107C28.786 28.7765 28.4405 28.4341 28.0119 28.4341ZM61.1218 15.4934H63.0286C63.4582 15.4934 63.8042 15.1454 63.8042 14.7133C63.8042 14.2904 63.4582 13.9434 63.0286 13.9434H61.1218C60.6943 13.9434 60.3514 14.2904 60.3514 14.7133C60.3514 15.1454 60.6943 15.4934 61.1218 15.4934ZM41.7267 23.1289C41.7267 22.7039 41.3811 22.3626 40.9547 22.3626H39.0479C38.6189 22.3626 38.2744 22.7039 38.2744 23.1289C38.2744 23.5589 38.6189 23.909 39.0479 23.909H40.9547C41.3811 23.909 41.7267 23.5589 41.7267 23.1289ZM41.6831 21.3497L41.6544 17.718L39.2457 17.7396V19.8278H28.28V21.3845H29.2872C29.8665 21.3845 29.9669 21.9966 29.9669 21.9966C30.1135 23.6148 28.747 24.2637 28.747 24.2637C26.4111 25.6318 23.5002 25.0193 23.5002 25.0193C20.7307 24.4062 20.5461 23.0048 20.5461 22.1063C20.5461 21.3497 22.2438 19.8422 22.2438 19.8422H19.4313C17.2779 21.8167 18.3912 23.8654 18.3912 23.8654C19.6855 26.454 22.6698 27.0271 23.2126 27.0963C24.5064 27.2803 26.5531 27.0717 26.5531 27.0717C33.0604 26.2787 31.1889 21.3497 31.1889 21.3497H41.6831ZM64.9523 20.4501C64.7745 20.7361 64.611 21.1933 64.3439 20.8494C63.9462 20.3445 63.4049 19.3342 61.8984 19.0533C60.7625 18.8349 59.8808 18.5874 59.3447 18.6202C59.3447 18.6202 60.2776 17.9308 62.8282 18.0425C65.1123 18.1368 65.9586 19.2558 65.8858 19.6556C65.7448 20.4184 65.1307 20.1636 64.9523 20.4501ZM85.1922 21.0263C84.6202 19.0533 82.3151 18.655 81.3468 18.5464C80.3786 18.4367 78.8972 18.4028 78.0801 18.693C77.2431 18.978 75.6305 19.8817 75.2676 21.8167H66.9668C66.9668 21.8167 67.5409 21.4368 67.8254 20.8135C68.1714 20.0785 68.2206 17.9713 65.7684 17.3556C64.7704 17.0004 63.1486 16.7154 59.9177 17.0363C59.9177 17.0363 56.1415 17.6463 55.4588 18.655C54.9964 19.3342 56.2892 19.6295 56.5039 19.6295H59.5584C60.3939 19.6295 61.5011 19.8422 61.538 20.8494V21.8556H50.4621C50.4621 21.8556 49.5641 20.4184 48.2682 19.8817H45.1784C45.1784 19.8817 48.5245 21.9248 47.2948 24.2637C47.2948 24.2637 46.3256 26.7452 43.4848 26.5258C43.4848 26.5258 41.3273 26.3848 39.784 25.1649L39.0668 26.4919C39.0668 26.4919 40.5405 26.9635 41.6169 26.9989C42.697 27.0307 46.9765 27.535 49.4185 25.8097C49.4185 25.8097 50.7886 25.1649 50.538 23.1494H75.2004C75.2004 23.1494 75.3752 23.7952 76.1385 24.3022H79.0828C79.0828 24.3022 76.4573 22.9443 78.5369 20.2687C79.441 19.1225 82.249 19.3316 82.6083 21.4261C82.8221 22.6834 82.4079 23.6584 81.3468 24.3022H84.4628C84.4628 24.3022 85.7663 23.0048 85.1922 21.0263Z" fill="white"/>
<path d="M29.6526 87.0098L29.1056 86.9519C29.1056 86.9519 29.0728 86.9473 29.0369 86.9473C28.0723 89.1032 27.042 91.112 26.0424 93.0434L24.987 95.0994L24.5841 94.286C23.3673 91.8799 22.1232 89.3908 20.9971 86.9473C20.9525 86.9473 20.911 86.9519 20.911 86.9519L20.3748 87.0098L19.8509 86.9519H19.8186C19.2712 90.9741 18.7396 94.8647 18.1445 98.2129C18.1568 98.2129 18.7273 98.1467 18.7273 98.1467L19.3363 98.2129H19.3722C19.426 95.9882 19.6644 93.8262 20.0719 90.6563L20.1487 90.1207L21.8454 93.5878C21.8454 93.5878 23.9562 97.9366 24.0536 98.1349C24.2033 98.1237 24.3458 98.1237 24.498 98.1411C25.7077 95.5115 26.9922 92.8728 28.2158 90.4124L28.4654 89.909L28.7586 92.6892C28.9467 94.4884 29.1477 96.3363 29.2497 98.2221C29.3517 98.2144 29.4644 98.2129 29.4644 98.2129L30.4676 98.1467L31.5307 98.2129C31.5307 98.2129 31.6086 98.2144 31.6875 98.2144C31.2047 95.368 30.8489 92.2561 30.4337 88.6737C30.4337 88.6737 30.2738 87.2323 30.241 86.9519L29.6526 87.0098Z" fill="white"/>
<path d="M37.9151 86.8245C37.9151 86.8245 37.545 86.7989 37.3733 86.7773C37.2862 86.9926 32.8656 97.7087 32.6719 98.1741L33.2337 98.1475L33.7673 98.1741C33.7673 98.1741 33.8447 98.1813 33.9108 98.1931C34.0933 97.5836 34.3409 97.0049 34.6079 96.396L35.2594 94.7921L37.5604 89.4484L37.709 89.8062C38.1488 90.9011 40.0126 96.6851 40.4924 98.2234C40.599 98.2157 40.7297 98.2136 40.7297 98.2136L41.8313 98.1475L42.9313 98.2136C42.9313 98.2136 42.9974 98.2157 43.044 98.2157C42.8585 97.7502 38.5353 86.9926 38.4492 86.7773C38.2811 86.7989 37.9151 86.8245 37.9151 86.8245Z" fill="white"/>
<path d="M69.0478 86.8245C69.0478 86.8245 68.6839 86.7989 68.506 86.7773C68.4199 86.9926 63.9994 97.7087 63.8066 98.1741L64.3654 98.1475L64.9036 98.1741C64.9036 98.1741 64.983 98.1813 65.0481 98.1931C65.227 97.5836 65.4741 97.0049 65.7417 96.396L66.3896 94.7921L68.6921 89.4484L68.8438 89.8062C69.2974 90.9482 71.1863 96.8481 71.6215 98.2234C71.7348 98.2157 71.8645 98.2136 71.8645 98.2136L72.965 98.1475L74.0681 98.2136C74.0681 98.2136 74.1234 98.2157 74.168 98.2157C73.982 97.7502 69.6686 86.9926 69.5829 86.7773C69.4128 86.7989 69.0478 86.8245 69.0478 86.8245Z" fill="white"/>
<path d="M51.0579 93.3461C51.0579 93.3461 50.9974 93.3384 50.9405 93.3348V97.2217L50.8575 97.2745C50.3003 97.598 49.6508 97.761 48.9158 97.761C46.2611 97.761 44.6778 95.9372 44.6778 92.8827C44.6778 90.1096 46.0341 87.312 49.0645 87.312C50.4515 87.312 51.6904 87.944 52.4813 89.0394H52.5106C52.5808 88.5549 52.7166 88.0593 52.9104 87.5698C51.7586 86.9352 50.4905 86.623 49.0347 86.623C44.8131 86.623 42.1953 88.9994 42.1953 92.8335C42.1953 96.9721 45.5978 98.455 48.7882 98.455C50.3003 98.455 51.836 98.09 53.1574 97.7251V93.3348C53.099 93.3384 53.0411 93.3461 53.0411 93.3461L52.0498 93.403L51.0579 93.3461Z" fill="white"/>
<path d="M57.041 92.389L56.8832 92.37V87.6783V87.5112H57.302C58.2825 87.4989 59.5132 87.4856 59.7952 88.9121L59.8813 89.7917C59.8813 90.7262 59.6332 91.4258 59.1539 91.861C58.6705 92.2998 57.9622 92.4684 57.041 92.389ZM61.9352 96.4707C61.1325 95.2374 60.3 93.9606 59.5604 92.6612L59.4461 92.4684L59.6614 92.4151C61.2657 92.0671 62.1812 91.0194 62.1812 89.5309C62.1812 88.4677 61.744 87.747 60.7906 87.2452C60.1688 86.9207 59.095 86.9238 58.3092 86.9238H54.6719V98.2145C54.736 98.2145 54.7974 98.213 54.7974 98.213L55.7801 98.1463L56.7524 98.213C56.7524 98.213 56.8273 98.2145 56.8832 98.2145V92.7898H57.1712H57.264L57.8258 93.7392L58.4163 94.7459C58.4163 94.7459 60.2841 98.0598 60.3785 98.2222C60.4948 98.2145 60.645 98.213 60.645 98.213L61.8224 98.1463L63.0029 98.213C63.0029 98.213 63.0398 98.213 63.0485 98.2145C62.8563 97.8967 62.5631 97.4374 62.5631 97.4374L61.9352 96.4707Z" fill="white"/>
<path d="M59.7968 88.913C59.5149 87.4864 58.2846 87.4998 57.3036 87.5121H56.8848V87.6792V92.3709L57.0427 92.3893C57.9638 92.4688 58.6721 92.3006 59.1555 91.8619C59.6348 91.4267 59.8829 90.727 59.8829 89.7926L59.7968 88.913Z" fill="#5D0F2F"/>
<path d="M76.9135 97.4867V92.5766L77.0678 92.5705C78.1437 92.4854 78.9054 92.6745 79.4103 93.142C79.8747 93.5654 80.0941 94.2122 80.0941 95.1093C80.0941 96.5809 78.9772 97.4867 77.9387 97.4867H76.9135ZM77.9484 87.5112C79.1843 87.5112 79.9342 88.275 79.9342 89.5575C79.9342 90.3499 79.6466 91.0291 79.1397 91.4489C78.5825 91.9256 77.9746 91.9256 77.3133 91.9108H76.9135V87.7475L76.9104 87.5974L77.9484 87.5112ZM82.4007 94.9898C82.4007 92.9339 80.5841 92.4551 79.4954 92.3531L79.3452 92.3439V91.8918L79.4841 91.8687C80.7076 91.7026 82.1342 90.9307 82.1342 89.3232C82.1342 87.3452 80.3796 86.9238 78.9121 86.9238H74.7109V98.1469H78.461C80.4268 98.1469 82.4007 97.1729 82.4007 94.9898Z" fill="white"/>
<path d="M76.9132 91.9107H77.313C77.9743 91.9261 78.5822 91.9261 79.1394 91.4494C79.6463 91.0291 79.9339 90.3504 79.9339 89.5575C79.9339 88.2755 79.184 87.5117 77.9481 87.5117L76.9102 87.5973L76.9132 87.7475V91.9107Z" fill="#5D0F2F"/>
<path d="M83.6109 86.9519C83.6109 86.9519 83.5248 86.9473 83.4453 86.9473V98.2144C83.5104 98.2144 83.5786 98.2123 83.5786 98.2123L84.5509 98.1462L85.5269 98.2123C85.5269 98.2123 85.5951 98.2144 85.6633 98.2144V86.9473C85.5705 86.9473 85.491 86.9519 85.491 86.9519L84.5509 87.0098L83.6109 86.9519Z" fill="white"/>
<path d="M108.502 72.8379C109.063 72.8794 109.616 72.944 110.17 72.944C110.722 72.944 111.282 72.8794 111.84 72.8379V78.8577C112.969 78.9049 114.106 78.972 115.239 78.972C116.374 78.972 117.504 78.9049 118.642 78.8577V72.8379C119.196 72.8794 119.748 72.944 120.311 72.944C120.863 72.944 121.416 72.8794 121.974 72.8379V88.0868C121.416 88.0396 120.863 87.9673 120.311 87.9673C119.748 87.9673 119.196 88.0396 118.642 88.0868V80.6364C117.504 80.5938 116.374 80.5277 115.239 80.5277C114.106 80.5277 112.969 80.5938 111.84 80.6364V88.0868C111.282 88.0396 110.722 87.9673 110.17 87.9673C109.616 87.9673 109.063 88.0396 108.502 88.0868V72.8379Z" fill="#610627"/>
<path d="M128.355 81.0809C128.355 83.9698 129.666 87.0438 133.004 87.0438C136.427 87.0438 137.957 83.6151 137.957 79.925C137.957 77.0623 136.618 73.774 133.288 73.774C130.203 73.774 128.355 76.1032 128.355 81.0809ZM132.889 88.3719C127.975 88.3719 124.664 85.4917 124.664 80.4432C124.664 76.0161 127.894 72.4336 133.417 72.4336C139.759 72.4336 141.628 76.9034 141.653 80.3535C141.67 84.6803 138.336 88.3719 132.889 88.3719Z" fill="#610627"/>
<path d="M151.053 75.7013C150.607 74.5249 149.763 73.774 148.494 73.774C146.736 73.774 146.048 74.6808 146.048 75.9464C146.048 78.9501 152.81 78.395 152.81 83.4829C152.81 86.3277 150.36 88.3719 146.915 88.3719C145.693 88.3719 144.382 88.0884 143.338 87.42C143.606 86.4799 143.849 85.5542 143.986 84.5921H144.41C144.737 86.1304 145.943 87.0438 147.472 87.0438C148.85 87.0438 150.071 86.2636 150.071 84.7315C150.071 81.1742 143.452 82.4623 143.452 77.1115C143.452 74.5475 145.205 72.4336 148.587 72.4336C150.188 72.4336 151.607 73.0369 152.094 73.5034C151.827 74.2128 151.607 74.9483 151.387 75.7013H151.053Z" fill="#610627"/>
<path d="M158.453 80.1725C158.942 80.1458 159.45 80.1258 159.921 80.0141C161.364 79.6178 161.901 78.3461 161.901 76.9924C161.901 75.2127 160.986 74.0317 159.83 74.0317H158.453V80.1725ZM158.453 88.0868C157.899 88.0396 157.336 87.9673 156.79 87.9673C156.235 87.9673 155.673 88.0396 155.121 88.0868V72.8379H160.584C163.673 72.8379 165.347 74.0845 165.347 76.5926C165.347 80.5467 162.456 81.3914 158.453 81.3914V88.0868Z" fill="#610627"/>
<path d="M167.898 72.8379C168.46 72.8794 169.01 72.944 169.568 72.944C170.125 72.944 170.675 72.8794 171.234 72.8379V88.0868C170.675 88.0396 170.125 87.9673 169.568 87.9673C169.01 87.9673 168.46 88.0396 167.898 88.0868V72.8379Z" fill="#610627"/>
<path d="M181.186 88.0868C180.634 88.0396 180.08 87.9673 179.531 87.9673C178.974 87.9673 178.414 88.0396 177.854 88.0868V74.4146C176.282 74.4146 174.88 74.5704 173.727 74.7237C173.772 74.4146 173.836 74.1024 173.836 73.7723C173.836 73.4535 173.772 73.149 173.727 72.8379H185.173C185.128 73.149 185.064 73.4535 185.064 73.7723C185.064 74.1024 185.128 74.4146 185.173 74.7237C183.863 74.5704 182.546 74.4146 181.186 74.4146V88.0868Z" fill="#610627"/>
<path d="M193.039 82.085L191.069 76.9033L188.974 82.085H193.039ZM188.378 83.4382C187.799 85.1317 187.247 86.507 186.814 88.0407C186.462 88.0161 186.129 87.9689 185.78 87.9689C185.417 87.9689 185.068 88.0161 184.711 88.0407L191.069 72.6309C191.354 72.6801 191.623 72.699 191.912 72.699C192.193 72.699 192.468 72.6801 192.749 72.6309L198.959 88.0878C198.309 88.0407 197.683 87.9689 197.047 87.9689C196.398 87.9689 195.784 88.0407 195.132 88.0878C194.613 86.4399 194.157 84.9298 193.552 83.4382H188.378Z" fill="#610627"/>
<path d="M204.354 86.3737C206.292 86.3737 207.941 86.2148 209.45 86.058C209.414 86.3737 209.34 86.7038 209.34 87.0206C209.34 87.3297 209.414 87.6577 209.45 87.9679H201.023V72.8379C201.575 72.8799 202.137 72.944 202.693 72.944C203.245 72.944 203.798 72.8799 204.354 72.8379V86.3737Z" fill="#610627"/>
<path d="M225.765 75.61C225.765 74.7473 225.19 73.8979 224.252 73.8979C223.25 73.8979 222.647 74.5233 222.647 75.5249C222.647 76.5223 223.492 77.6998 224.03 78.504C224.837 77.8807 225.765 76.6567 225.765 75.61ZM220.36 83.5515C220.36 84.1953 220.668 84.9462 221.074 85.4623C221.497 85.9903 221.899 86.2343 222.518 86.4783C222.898 86.6362 223.324 86.6362 223.717 86.6362C224.451 86.6362 225.475 86.262 225.99 85.7263C224.632 84.1481 223.324 82.5288 222.048 80.8834C221.166 81.4801 220.36 82.4171 220.36 83.5515ZM224.922 79.6178L228.139 83.5278C229.237 82.2602 230.055 80.7906 230.787 79.3098L232.002 80.5738C231.05 81.9245 230.055 83.2137 228.913 84.4187C229.926 85.5044 230.877 86.6608 231.966 87.7992V88.0868C231.258 88.0391 230.564 87.9673 229.852 87.9673C229.145 87.9673 228.455 88.0391 227.741 88.0868L226.608 86.506C225.408 87.5501 223.492 88.3702 221.899 88.3702C220.692 88.3702 219.649 88.0868 218.693 87.3051C217.832 86.5926 217.447 85.6838 217.447 84.5905C217.447 82.3002 219.544 80.8557 221.407 80.0141C220.583 78.8121 219.788 77.7659 219.788 76.2348C219.788 74.1024 221.847 72.8379 223.828 72.8379C225.475 72.8379 227.496 73.5709 227.496 75.5249C227.496 77.2989 226.031 78.4328 224.672 79.3098L224.922 79.6178Z" fill="#610627"/>
<path d="M252.594 85.506L252.108 87.4205C250.775 88.1033 249.197 88.3719 247.701 88.3719C242.944 88.3719 239.344 85.4409 239.344 80.8851C239.344 75.0822 243.346 72.4336 248.189 72.4336C249.659 72.4336 251.443 72.8129 252.73 73.529C252.527 74.2789 252.393 75.0365 252.218 75.8187H251.908C251.085 74.6136 249.659 73.774 248.217 73.774C244.524 73.774 243.044 77.3006 243.044 80.576C243.044 84.3737 244.897 87.0438 248.324 87.0438C249.703 87.0438 251.312 86.3277 252.304 85.3738L252.594 85.506Z" fill="#610627"/>
<path d="M263.799 72.8379C263.755 73.149 263.683 73.4781 263.683 73.7903C263.683 74.1024 263.755 74.4372 263.799 74.7473C262.445 74.5704 260.928 74.3926 258.66 74.4372V79.2093H260.974C261.979 79.2093 262.885 79.1284 263.708 79.0166C263.667 79.3246 263.601 79.6578 263.601 79.9726C263.601 80.2827 263.667 80.6169 263.708 80.9173C262.885 80.8132 261.979 80.7266 260.974 80.7266H258.66V86.3737C260.928 86.3491 262.445 86.2343 263.799 86.0574C263.755 86.3737 263.683 86.7033 263.683 87.0206C263.683 87.3297 263.755 87.6577 263.799 87.9673H255.324V72.8379H263.799Z" fill="#610627"/>
<path d="M266.576 72.8379H268.78C271.937 76.2814 275.247 79.6578 278.38 83.2403V72.8379C278.667 72.8794 278.984 72.9004 279.271 72.9004C279.56 72.9004 279.874 72.8794 280.159 72.8379V88.0868L278.271 88.0622C275.689 85.1968 273.288 82.4612 270.776 79.8116L268.352 77.2799V88.0396C268.068 88.015 267.757 87.9673 267.464 87.9673C267.18 87.9673 266.865 88.015 266.576 88.0396V72.8379Z" fill="#610627"/>
<path d="M289.914 88.0868C289.358 88.0396 288.807 87.9673 288.245 87.9673C287.691 87.9673 287.139 88.0396 286.583 88.0868V74.4146C285.011 74.4146 283.605 74.5704 282.447 74.7237C282.489 74.4146 282.557 74.1024 282.557 73.7723C282.557 73.4535 282.489 73.149 282.447 72.8379H293.899C293.852 73.149 293.785 73.4535 293.785 73.7723C293.785 74.1024 293.852 74.4146 293.899 74.7237C292.584 74.5704 291.273 74.4146 289.914 74.4146V88.0868Z" fill="#610627"/>
<path d="M304.564 72.8379C304.524 73.149 304.451 73.4781 304.451 73.7903C304.451 74.1024 304.524 74.4372 304.564 74.7473C303.21 74.5704 301.698 74.3926 299.434 74.4372V79.2093H301.743C302.744 79.2093 303.657 79.1284 304.476 79.0166C304.433 79.3246 304.362 79.6578 304.362 79.9726C304.362 80.2827 304.433 80.6169 304.476 80.9173C303.657 80.8132 302.744 80.7266 301.743 80.7266H299.434V86.3737C301.698 86.3491 303.21 86.2343 304.564 86.0574C304.524 86.3737 304.451 86.7033 304.451 87.0206C304.451 87.3297 304.524 87.6577 304.564 87.9673H296.096V72.8379H304.564Z" fill="#610627"/>
<path d="M310.478 79.9949C312.814 80.2189 313.973 79.1066 313.973 76.8143C313.973 76.5032 313.947 76.17 313.86 75.701C313.508 73.8598 311.833 74.0325 310.478 74.0325V79.9949ZM307.145 72.8392H311.876C312.924 72.8392 314.555 72.7901 315.479 73.2836C316.752 73.9541 317.408 74.9485 317.408 76.4576C317.408 78.635 316.01 80.0154 313.947 80.4583C315.168 82.5896 316.548 84.6384 317.878 86.7046L318.751 88.0881C318.081 88.0409 317.408 87.9687 316.729 87.9687C316.06 87.9687 315.389 88.0409 314.723 88.0881L312.076 83.4154C311.752 82.8152 311.128 81.7926 310.636 80.9499H310.478V88.0881C309.928 88.0409 309.368 87.9687 308.809 87.9687C308.256 87.9687 307.701 88.0409 307.145 88.0881V72.8392Z" fill="#610627"/>
<path d="M327.713 75.7013C327.258 74.5249 326.423 73.774 325.148 73.774C323.389 73.774 322.703 74.6808 322.703 75.9464C322.703 78.9501 329.457 78.395 329.457 83.4829C329.457 86.3277 327.013 88.3719 323.569 88.3719C322.35 88.3719 321.036 88.0884 319.996 87.42C320.261 86.4799 320.505 85.5542 320.641 84.5921H321.057C321.39 86.1304 322.596 87.0438 324.121 87.0438C325.502 87.0438 326.727 86.2636 326.727 84.7315C326.727 81.1742 320.109 82.4623 320.109 77.1115C320.109 74.5475 321.859 72.4336 325.235 72.4336C326.838 72.4336 328.263 73.0369 328.753 73.5034C328.485 74.2128 328.263 74.9483 328.037 75.7013H327.713Z" fill="#610627"/>
<path d="M144.246 24.4668C145.007 24.5754 145.785 24.7497 146.559 24.7497C147.336 24.7497 148.164 24.5754 148.923 24.4668C150.641 39.3035 151.914 51.3375 153.786 62.3176C152.245 62.2068 150.753 62.0377 149.214 62.0377C147.661 62.0377 146.292 62.2068 144.742 62.3176C144.3 53.5437 143.199 45.0947 142.364 36.6007C138.18 45.0455 134.033 53.4832 130.125 62.0377C129.402 61.9316 128.735 61.8695 128.018 62.0377C124.489 54.4161 120.134 45.8738 115.944 37.2117C114.673 46.919 113.789 54.5832 113.624 62.3176C112.749 62.2068 111.918 62.0377 111.038 62.0377C110.153 62.0377 109.378 62.2068 108.5 62.3176C110.478 51.2176 112.242 38.424 114.119 24.4668C114.893 24.5754 115.612 24.7497 116.384 24.7497C117.155 24.7497 117.923 24.5754 118.703 24.4668C122.671 33.1212 127.03 41.7352 131.391 50.3964C135.365 42.5646 140.056 33.8881 144.246 24.4668Z" fill="#610627"/>
<path d="M165.298 50.7412C163.864 54.946 161.836 58.3972 160.791 62.2072C159.91 62.1411 159.086 62.0381 158.207 62.0381C157.32 62.0381 156.438 62.1411 155.547 62.2072L171.331 23.9746C172.052 24.0833 172.706 24.1366 173.439 24.1366C174.146 24.1366 174.81 24.0833 175.533 23.9746L190.915 62.318C189.311 62.2072 187.78 62.0381 186.171 62.0381C184.573 62.0381 183.028 62.2072 181.426 62.318C180.163 58.2275 173.752 38.2619 172.271 34.5687L165.298 50.7412Z" fill="#610627"/>
<path d="M266.563 50.7412C265.121 54.946 263.101 58.3972 262.05 62.2072C261.177 62.1411 260.338 62.0381 259.471 62.0381C258.59 62.0381 257.704 62.1411 256.822 62.2072L272.598 23.9746C273.312 24.0833 273.971 24.1366 274.693 24.1366C275.408 24.1366 276.07 24.0833 276.786 23.9746L292.177 62.318C290.572 62.2072 289.034 62.0381 287.436 62.0381C285.833 62.0381 284.292 62.2072 282.68 62.318C281.424 58.2275 275.019 38.2619 273.536 34.5687L266.563 50.7412Z" fill="#610627"/>
<path d="M223.544 60.5398C218.579 61.932 213.669 63.033 208.812 63.033C197.177 63.033 186.803 57.1737 186.803 44.215C186.803 30.4819 196.845 23.4805 209.593 23.4805C214.331 23.4805 218.741 24.4672 222.881 26.841C222.114 28.6048 221.559 30.53 221.337 32.4066H220.576C218.026 28.7047 214.05 26.7784 209.7 26.7784C200.486 26.7784 195.966 35.1131 195.966 44.3852C195.966 53.9849 200.82 59.7114 209.194 59.7114C211.955 59.7114 213.948 58.9549 215.271 58.1793V45.2715C216.65 45.3719 218.026 45.5431 219.409 45.5431C220.788 45.5431 222.169 45.3719 223.544 45.2715V60.5398Z" fill="#610627"/>
<path d="M235.684 42.2384C241.474 42.7895 244.349 40.0271 244.349 34.341C244.349 33.565 244.286 32.7403 244.076 31.5844C243.177 27.0147 239.045 27.4432 235.684 27.4432V42.2384ZM227.412 24.4677H239.165C241.75 24.4677 245.775 24.3544 248.096 25.5656C251.241 27.2228 252.901 29.7119 252.901 33.4512C252.901 38.8687 249.42 42.2779 244.286 43.3938C247.32 48.6837 250.737 53.7593 254.061 58.8985L256.21 62.3184C254.552 62.2077 252.901 62.0385 251.183 62.0385C249.528 62.0385 247.869 62.2077 246.219 62.3184L239.66 50.735C238.827 49.2367 237.278 46.7041 236.071 44.6132H235.684V62.3184C234.29 62.2077 232.936 62.0385 231.545 62.0385C230.162 62.0385 228.796 62.2077 227.412 62.3184V24.4677Z" fill="#610627"/>
<path d="M300.829 58.8304H303.597C306.632 58.8304 310.105 56.1814 310.105 51.6143C310.105 45.5427 306.739 43.4406 300.829 43.8876V58.8304ZM300.829 40.6921C303.212 40.6921 305.298 40.9125 307.176 39.3035C308.893 37.8729 309.568 35.7108 309.568 33.5641C309.568 29.6039 307.292 27.4423 303.646 27.4423C302.771 27.4423 301.936 27.4987 300.829 27.6684V40.6921ZM292.559 24.4668H306.788C312.362 24.4668 317.785 26.3459 317.785 32.7988C317.785 37.9872 313.413 40.9654 308.724 41.6168V42.1238C312.807 42.5128 318.657 44.3853 318.657 51.2176C318.657 58.8304 311.816 62.0377 305.298 62.0377H292.559V24.4668Z" fill="#610627"/>
<path d="M320.988 24.4668C322.366 24.5754 323.749 24.7497 325.12 24.7497C326.508 24.7497 327.885 24.5754 329.267 24.4668V62.3176C327.885 62.2068 326.508 62.0377 325.12 62.0377C323.749 62.0377 322.366 62.2068 320.988 62.3176V24.4668Z" fill="#610627"/>
</g>
</svg>